<svg width="828" height="409" viewBox="0 0 828 409" fill="none" xmlns="http://www.w3.org/2000/svg">
<path d="M117.5 117.5H208C232.577 117.5 252.5 137.423 252.5 162V252.5H162C137.423 252.5 117.5 232.577 117.5 208V117.5Z" stroke="url(#paint0_linear)" stroke-width="39"/>
<path d="M25.5 25.5H181C222.145 25.5 255.5 58.8548 255.5 100V255.5H100C58.8548 255.5 25.5 222.145 25.5 181V25.5Z" stroke="#3D3C3C" stroke-width="51"/>
<path d="M242.804 348.995C240.011 346.734 237.085 345.138 234.026 344.074C233.095 343.808 232.297 343.542 231.366 343.276C230.568 343.143 229.903 342.877 229.238 342.744C229.105 342.611 228.839 342.611 228.706 342.478C227.11 341.813 226.046 340.217 225.78 338.355C225.514 336.892 226.179 335.695 226.578 335.03C228.44 332.37 231.632 333.434 233.627 334.232C235.755 335.163 235.755 340.084 236.553 340.084C238.548 340.084 244.932 340.217 246.927 340.217C248.257 340.217 247.725 339.685 247.592 338.355C247.592 337.956 247.592 337.557 247.592 337.291C247.459 335.562 247.459 333.833 246.794 331.971C245.331 327.848 243.336 325.055 240.543 323.459C238.947 322.528 237.351 322.262 236.021 321.996L235.622 321.863C235.356 321.863 235.09 321.73 234.957 321.73C233.76 321.464 232.43 321.198 230.967 321.065C227.642 320.932 224.317 321.464 221.125 322.794C218.199 323.991 215.938 325.853 214.608 328.38C212.613 331.838 210.751 337.291 211.682 342.212C212.347 346.468 215.273 350.724 218.997 353.384C220.859 354.581 222.721 355.379 224.45 355.911C226.046 356.576 227.908 357.241 230.302 358.438C231.366 358.97 232.43 359.635 233.228 360.566C234.425 361.763 234.691 364.423 233.76 365.886C232.829 367.748 230.967 368.147 228.972 368.28C223.519 368.679 221.79 364.423 221.657 363.226C221.125 360.433 221.125 359.236 220.327 359.236C218.997 359.236 209.953 359.103 208.756 359.103C207.958 359.103 208.756 362.827 208.756 363.492C208.889 364.822 209.022 366.285 209.554 367.615C212.746 376.659 219.662 381.58 228.972 381.447C229.238 381.447 229.504 381.447 229.77 381.447C233.627 381.447 237.218 380.649 240.676 378.787C244.533 376.659 247.326 373.201 248.257 368.945C250.385 360.566 248.523 353.916 242.804 348.995ZM308.955 344.739C308.822 343.808 308.822 342.877 308.822 341.946C308.556 338.488 308.423 334.897 306.827 331.306C304.433 325.72 300.044 321.996 294.99 321.331C291.266 320.932 288.207 320.932 285.547 321.464C279.296 322.794 274.907 326.252 272.912 331.705C272.114 333.966 271.582 336.493 271.449 339.02C271.183 343.01 271.05 357.374 271.183 360.699C271.316 363.093 271.582 366.152 272.513 369.078C274.774 375.994 279.828 380.25 286.877 381.314C288.074 381.447 289.138 381.447 290.069 381.447C291.399 381.447 292.463 381.314 293.527 381.181C299.113 379.851 303.103 377.324 305.497 373.6C308.29 369.078 308.955 363.625 309.221 359.369C309.62 355.113 309.487 350.591 308.955 344.739ZM295.256 357.374C295.256 359.369 294.99 365.62 292.729 367.349C291.399 368.546 288.074 367.881 287.01 366.551C285.414 364.556 285.547 361.364 285.547 358.97C285.414 353.118 285.281 347.133 285.281 341.281C285.281 340.483 285.547 339.685 285.813 338.754C286.345 337.291 287.409 336.227 288.739 335.828C289.138 335.695 289.537 335.695 289.936 335.695C293.793 335.695 295.123 340.35 295.256 343.542C295.256 344.872 295.256 346.335 295.256 347.665C295.389 350.724 295.389 354.315 295.256 357.374ZM363.81 294.731C361.283 292.337 358.756 291.273 355.298 290.741C351.175 290.076 346.653 291.273 342.929 294.066C338.407 297.258 337.875 302.844 337.476 306.834C337.476 307.233 337.476 307.499 337.476 307.765C337.21 309.76 337.21 314.415 337.21 319.868C337.21 320.533 337.21 321.331 337.21 321.863H337.077C336.146 321.73 332.289 321.863 331.225 321.863C329.496 321.863 329.496 324.39 329.629 327.183C329.629 327.449 329.629 327.981 329.629 328.38C329.629 329.045 329.629 329.577 329.629 329.976C329.629 331.971 329.23 335.03 330.56 335.03C334.55 335.03 336.146 335.03 336.811 335.03C336.811 340.616 336.811 347.931 336.811 353.517C336.811 356.576 336.678 359.502 336.678 362.561C336.678 366.285 336.678 370.142 336.545 373.866C336.545 374.265 336.412 378.122 336.412 378.521C336.412 381.048 338.141 380.516 339.87 380.516C339.87 380.516 348.515 380.516 348.648 380.516C351.707 380.516 351.308 378.92 351.308 375.595V373.201C351.308 368.812 351.308 364.423 351.308 359.901V357.906V354.448C351.308 353.118 351.308 351.389 351.308 349.527C351.308 345.005 351.308 339.286 351.308 335.03C352.505 335.03 353.702 335.03 354.5 335.03C357.16 335.03 359.421 335.429 359.421 333.833C359.421 332.769 359.421 328.779 359.554 327.848C359.687 325.188 360.219 321.73 358.224 321.73C357.027 321.73 352.505 321.597 351.441 321.597C351.441 317.607 351.441 311.622 351.574 306.834C351.574 305.77 351.84 304.307 353.835 304.307C353.835 304.307 356.628 304.174 356.628 306.701C356.628 313.218 356.229 313.351 359.421 313.351C359.82 313.351 363.411 313.351 363.677 313.351C365.539 313.351 364.608 313.351 365.938 313.218C368.731 313.085 368.598 312.553 368.598 310.558C368.731 303.243 366.603 297.524 363.81 294.731ZM408.733 321.996C407.536 321.996 402.083 321.996 401.019 321.996C400.753 321.996 400.487 321.996 400.221 321.996C400.221 319.336 400.088 308.829 400.088 308.031C400.221 305.371 399.955 304.041 398.625 304.44C398.226 304.573 388.517 309.494 388.118 309.627C386.123 310.558 386.389 310.558 386.256 314.415C386.256 314.947 386.256 315.479 386.256 316.011C386.256 317.74 386.256 319.336 386.256 321.065C386.256 321.331 386.123 321.597 386.123 321.863C385.99 321.863 385.857 321.863 385.724 321.863C384.527 321.863 380.803 321.863 379.739 321.996H379.606C376.68 322.129 377.079 322.661 377.079 323.991C377.079 326.385 376.414 335.03 377.744 335.03C378.143 335.03 384.926 335.03 385.325 335.03H385.458C385.591 335.03 385.857 335.03 385.99 335.03C385.99 335.163 386.123 335.429 386.123 335.695C385.857 341.813 385.857 354.98 385.99 373.999V378.92C385.99 381.181 387.453 380.516 391.31 380.516C397.162 380.516 400.221 380.915 400.221 379.319C400.221 375.595 400.354 366.684 400.354 362.162C400.354 358.039 400.354 353.783 400.354 349.66C400.221 345.803 400.221 341.946 400.221 338.089C400.221 337.158 400.221 336.227 400.354 335.163C401.019 335.163 401.817 335.163 402.615 335.163C403.28 335.163 407.536 335.163 408.334 335.163C409.797 335.163 409.398 329.178 409.398 328.912C409.265 327.848 409.93 321.996 408.733 321.996ZM462.124 348.995C459.331 346.734 456.405 345.138 453.346 344.074C452.415 343.808 451.617 343.542 450.686 343.276C449.888 343.143 449.223 342.877 448.558 342.744C448.425 342.611 448.159 342.611 448.026 342.478C446.43 341.813 445.366 340.217 445.1 338.355C444.834 336.892 445.499 335.695 445.898 335.03C447.76 332.37 450.952 333.434 452.947 334.232C455.075 335.163 455.075 340.084 455.873 340.084C457.868 340.084 464.252 340.217 466.247 340.217C467.577 340.217 467.045 339.685 466.912 338.355C466.912 337.956 466.912 337.557 466.912 337.291C466.779 335.562 466.779 333.833 466.114 331.971C464.651 327.848 462.656 325.055 459.863 323.459C458.267 322.528 456.671 322.262 455.341 321.996L454.942 321.863C454.676 321.863 454.41 321.73 454.277 321.73C453.08 321.464 451.75 321.198 450.287 321.065C446.962 320.932 443.637 321.464 440.445 322.794C437.519 323.991 435.258 325.853 433.928 328.38C431.933 331.838 430.071 337.291 431.002 342.212C431.667 346.468 434.593 350.724 438.317 353.384C440.179 354.581 442.041 355.379 443.77 355.911C445.366 356.576 447.228 357.241 449.622 358.438C450.686 358.97 451.75 359.635 452.548 360.566C453.745 361.763 454.011 364.423 453.08 365.886C452.149 367.748 450.287 368.147 448.292 368.28C442.839 368.679 441.11 364.423 440.977 363.226C440.445 360.433 440.445 359.236 439.647 359.236C438.317 359.236 429.273 359.103 428.076 359.103C427.278 359.103 428.076 362.827 428.076 363.492C428.209 364.822 428.342 366.285 428.874 367.615C432.066 376.659 438.982 381.58 448.292 381.447C448.558 381.447 448.824 381.447 449.09 381.447C452.947 381.447 456.538 380.649 459.996 378.787C463.853 376.659 466.646 373.201 467.577 368.945C469.705 360.566 467.843 353.916 462.124 348.995ZM528.275 344.739C528.142 343.808 528.142 342.877 528.142 341.946C527.876 338.488 527.743 334.897 526.147 331.306C523.753 325.72 519.364 321.996 514.31 321.331C510.586 320.932 507.527 320.932 504.867 321.464C498.616 322.794 494.227 326.252 492.232 331.705C491.434 333.966 490.902 336.493 490.769 339.02C490.503 343.01 490.37 357.374 490.503 360.699C490.636 363.093 490.902 366.152 491.833 369.078C494.094 375.994 499.148 380.25 506.197 381.314C507.394 381.447 508.458 381.447 509.389 381.447C510.719 381.447 511.783 381.314 512.847 381.181C518.433 379.851 522.423 377.324 524.817 373.6C527.61 369.078 528.275 363.625 528.541 359.369C528.94 355.113 528.807 350.591 528.275 344.739ZM514.576 357.374C514.576 359.369 514.31 365.62 512.049 367.349C510.719 368.546 507.394 367.881 506.33 366.551C504.734 364.556 504.867 361.364 504.867 358.97C504.734 353.118 504.601 347.133 504.601 341.281C504.601 340.483 504.867 339.685 505.133 338.754C505.665 337.291 506.729 336.227 508.059 335.828C508.458 335.695 508.857 335.695 509.256 335.695C513.113 335.695 514.443 340.35 514.576 343.542C514.576 344.872 514.576 346.335 514.576 347.665C514.709 350.724 514.709 354.315 514.576 357.374ZM589.381 348.33C589.381 347.399 589.381 346.335 589.381 345.271C589.381 339.818 589.381 334.631 589.381 329.311V329.178V323.592C589.381 321.464 587.918 321.996 584.061 321.996C578.209 321.996 575.15 321.597 575.15 323.326C575.15 324.257 575.017 326.784 575.017 328.38C575.017 328.513 575.017 328.513 575.017 328.646C575.017 328.779 575.017 329.045 575.017 329.178C575.017 329.178 575.017 329.311 575.017 329.444C575.017 335.695 575.017 341.813 575.017 348.197L575.15 353.384C575.15 354.315 575.15 355.246 575.15 356.177C575.15 357.773 575.15 359.502 575.15 361.231C575.15 363.492 574.086 366.817 571.426 367.083C568.234 367.349 565.973 364.822 565.441 361.763C565.175 360.433 565.441 358.97 565.441 357.507C565.441 352.719 565.574 347.931 565.574 343.143C565.574 338.621 565.308 333.966 565.574 329.577L565.84 323.592C565.84 321.464 564.776 321.996 560.919 321.996C554.934 321.996 551.875 321.597 551.875 323.326C551.875 324.257 551.875 326.917 551.875 328.38C551.742 333.833 551.742 337.557 551.742 340.882C551.875 343.941 551.742 347 551.742 349.926C551.609 355.379 551.609 360.832 552.008 366.418C552.274 371.871 554.934 376.127 559.589 379.319C561.185 380.383 563.18 381.048 565.175 381.314C566.239 381.447 567.17 381.447 568.101 381.447C570.761 381.447 573.554 379.718 575.549 377.59C575.948 377.058 577.012 377.058 577.145 377.856C577.81 379.984 577.677 380.516 578.741 380.516H585.258H585.524C588.051 380.516 588.982 380.915 588.982 379.718C588.982 378.388 589.381 373.866 589.381 372.669C589.381 367.349 589.381 362.029 589.381 356.709V348.33ZM642.742 321.331C639.949 320.932 636.225 320.932 633.565 321.331C633.299 321.331 632.9 321.331 632.634 321.464C632.368 321.464 632.102 321.597 631.969 321.597C629.841 321.863 626.516 325.188 625.053 328.513C624.787 329.178 623.856 329.045 623.723 328.38C623.058 324.124 623.324 321.996 621.861 321.863C621.728 321.863 615.743 321.996 615.61 321.996C614.147 321.996 614.147 326.518 614.147 328.779C614.413 333.966 614.28 351.256 614.28 362.694C614.28 367.349 614.28 371.206 614.28 373.334C614.28 374.398 614.014 378.92 614.147 380.117C614.28 380.915 618.004 380.516 620.93 380.516C621.063 380.516 621.329 380.516 621.462 380.516C623.59 380.516 628.245 380.782 628.245 379.452C628.112 378.388 628.378 374.531 628.378 373.733C628.378 370.94 628.378 368.28 628.378 365.62C628.378 359.901 628.378 354.049 628.511 348.33C628.511 346.202 628.644 341.148 628.644 341.148C630.506 329.976 643.54 337.557 643.939 334.232C644.205 331.572 643.806 321.464 642.742 321.331ZM696.919 357.773H693.86C691.865 357.507 689.072 357.108 688.939 359.103C688.673 361.231 688.274 363.359 687.21 365.088C686.545 366.152 685.348 367.349 684.018 367.482C678.698 368.014 677.767 363.492 677.767 360.3C677.634 358.172 677.634 356.31 677.634 354.315L677.501 352.32C677.501 349.394 677.767 346.468 677.767 343.409C677.634 340.084 678.166 338.089 679.363 336.626C680.161 335.695 681.225 335.163 682.422 335.163C683.22 335.296 683.885 335.296 684.816 335.562C687.476 336.493 687.609 343.542 688.008 344.34C688.673 345.803 689.471 345.67 691.2 346.069C692.264 346.335 693.594 346.335 695.589 346.202C698.648 345.936 700.776 346.734 700.776 343.675C700.776 336.36 699.446 331.04 696.52 326.784C692.131 320.533 682.156 320.4 676.57 321.73C672.713 322.794 669.654 324.656 667.659 327.183C664.999 330.641 663.536 335.429 663.403 340.616C663.403 342.212 663.403 343.941 663.27 345.803C663.004 353.65 662.738 361.63 664.866 369.211C666.462 374.664 670.452 378.654 676.171 380.516C678.299 381.181 680.427 381.447 682.555 381.447C686.545 381.447 690.402 380.25 693.594 377.856C698.116 374.664 700.111 369.344 700.776 363.758C701.441 358.704 701.574 357.773 696.919 357.773ZM751.799 359.768C749.139 359.768 747.676 359.901 747.676 361.63C747.676 363.093 747.809 367.615 742.622 367.615C740.76 367.615 738.898 367.083 737.967 365.354C737.435 364.024 737.169 362.428 737.036 360.965C736.903 360.566 736.903 360.034 736.903 359.635C736.637 358.571 736.903 355.911 737.036 354.98C738.632 354.98 740.627 354.98 742.356 354.98C743.42 354.98 744.218 354.98 745.149 354.98C745.814 354.98 746.479 354.98 747.277 354.98C749.272 354.98 754.991 354.98 757.119 354.98C758.316 354.98 759.646 354.98 759.646 348.862C759.646 345.271 759.646 343.409 759.513 339.818C759.38 336.493 759.114 332.902 756.986 329.444C754.991 326.119 751.533 323.459 747.41 321.996C741.026 319.868 733.977 321.065 729.455 325.055C724.933 329.045 722.805 335.03 723.071 343.675C723.071 345.404 722.938 347.399 722.938 349.66C722.539 360.3 721.874 374.93 734.509 379.984C737.036 380.915 739.563 381.447 742.223 381.447C744.75 381.447 747.144 381.048 749.671 380.117C755.523 377.856 758.715 375.196 759.912 363.492C760.311 360.566 760.178 359.768 751.799 359.768ZM737.302 336.227C737.568 335.03 738.632 334.232 739.962 333.833C741.558 333.301 743.154 333.567 744.218 334.498C745.548 335.695 746.08 339.02 746.08 340.749C746.213 341.414 746.213 342.478 746.08 343.409C745.947 343.409 745.681 343.409 745.415 343.409H745.282C743.819 343.276 738.632 343.276 737.036 343.409V343.01C737.036 341.547 736.903 337.291 737.302 336.227ZM821.448 304.573C821.448 302.445 821.315 291.805 821.315 289.677C821.049 287.283 819.719 287.815 815.33 287.549C814.266 287.549 813.069 287.549 811.606 287.682C809.478 287.815 807.084 287.549 807.084 290.608C807.084 294.066 807.084 304.839 807.084 309.361C807.217 313.218 807.616 318.272 807.616 321.996C806.02 321.464 804.557 321.331 803.759 321.198C803.626 321.198 803.493 321.198 803.36 321.198C802.961 321.065 802.03 321.065 801.498 321.065C801.365 321.065 801.365 321.065 801.365 321.065C792.587 321.065 785.937 326.119 783.809 334.365C781.814 341.946 782.08 349.926 782.346 356.842C782.346 357.241 782.346 357.64 782.346 358.039C782.479 362.029 782.745 366.152 784.208 370.275C785.804 374.531 788.331 378.122 792.986 379.984C795.38 380.915 796.178 381.447 798.572 381.447C804.956 381.447 807.084 378.654 808.813 375.196C809.079 374.664 809.744 374.797 809.877 375.329C809.877 379.718 812.803 380.649 812.803 380.649C814.665 380.516 815.463 380.516 817.192 380.516C819.32 380.516 821.581 380.25 821.714 378.92C821.847 376.925 821.448 314.282 821.448 304.573ZM806.818 359.901V360.034C806.818 360.832 806.818 361.497 806.685 362.162C806.552 363.359 806.02 365.487 804.424 366.285C802.961 367.083 800.567 366.817 799.37 365.753C797.907 364.556 797.109 362.029 796.976 359.369C796.976 353.783 796.976 348.729 796.976 343.409C797.109 342.079 797.242 340.616 797.774 338.754C798.173 336.892 800.035 335.562 802.163 335.562C802.296 335.562 802.429 335.562 802.562 335.562C805.089 335.828 806.552 337.291 806.685 339.552C806.818 343.143 806.818 355.778 806.818 359.901Z" fill="white"/>
<defs>
<linearGradient id="paint0_linear" x1="98" y1="98" x2="255.5" y2="257.5" gradientUnits="userSpaceOnUse">
<stop stop-color="#59CCC1"/>
<stop offset="1" stop-color="#18BD0B"/>
</linearGradient>
</defs>
</svg>
